<?xml version="1.0" ?>
<svg xmlns="http://www.w3.org/2000/svg" width="396" height="584" viewBox="0 0 396 584" fill="none">
  <g id="Askan_Vectorised_2">
    <rect id="Rectangle 3" x="3.00003" y="1" width="392" height="581.5" fill="#D9D9D9"/>
    <g id="Askan_Vector_Kinda3D">
      <g id="AskanBoundary">
        <path id="Vector 24" d="M190 61.552L11.5 143.122L66 255.218H76.5L104.5 242.207L125.5 239.205H131L139.5 234.2L154 223.191L150.5 219.187V210.18V202.173L158 198.67H160.5V202.173L154 206.677L160.5 223.191L164.5 229.196L160.5 236.702L164.5 239.205L190 261.224H181.5L169.5 255.218L158 239.205H150.5H141.5L131 247.212L125.5 255.218L100.5 265.227L83 279.239L76.5 293.251L125.5 382.328L150.5 377.323L175 363.311H190L197 373.82L158 392.336L141.5 405.347V414.355L202.5 539.963H213.5L220.5 530.955L236.5 517.444L243 506.434L255 493.423L261.5 484.415L271.5 475.908H275.5L236.5 525.451L230.5 534.959L220.5 544.467L202.5 548.47L206 560.481L220.5 563.984C243.333 533.624 290.9 470.103 298.5 458.893C306.1 447.684 307.667 444.214 307.5 443.88V436.374L313 430.869L330 426.365L336.5 414.355L330 410.852L336.5 398.842V392.336L344.5 382.328L349 373.82L353 363.311L357 367.315L336.5 405.347L340.5 410.852L364 373.82L376.5 337.789L349 293.251L336.5 297.255V305.261L330 310.766L295 322.276L288 317.272L295 305.261L344.5 276.236L298.5 177.652H295L275.5 187.66L243 198.67V181.655L295 155.633L288 140.12L289 127.609L251 36.0301L197 61.552H206L251 46.0387V49.5417L206 68.558H197L190 61.552Z" fill="#A39D9D" fill-opacity="0.5" stroke="black"/>
        <path id="Vector 25" d="M128.5 385.33L178.5 366.814H190V369.316L175 380.326L146.5 392.336L139 400.844V407.349M66 259.222L93.5 254.218L112 245.71L124.5 242.207L128.5 245.71L122 252.216L99.5 262.725L82.5 270.231L75.5 283.743M344.5 283.743L336.5 291.249L306 305.261L295 310.266L293 317.272L318 312.768L329.5 305.261L333.5 299.256L344.5 291.249H348" stroke="black"/>
        <path id="Vector 26" d="M294.5 162.138L267.5 174.649L250 181.655L247 186.659V191.163L263.5 186.659H272L281 181.655L294.5 174.649H297.5" stroke="black"/>
      </g>
      <g id="AskanBuildings">
        <g id="1">
          <path d="M182 63.5537L192 77.0653L207 71.5606L211 89.5761V94.5804H195.19L194 106.09V110.094L176 106.09V103.088L180.909 89.5761L169.5 82.0696V77.0653L182 63.5537Z" fill="#F0C189"/>
          <path d="M211 89.5761L207 71.5606L192 77.0653L182 63.5537L169.5 77.0653M211 89.5761L195.5 91.5778L195.19 94.5804M211 89.5761V94.5804H195.19M194 106.09L176 103.088M194 106.09L195.19 94.5804M194 106.09V110.094L176 106.09V103.088M176 103.088L180.909 89.5761M169.5 77.0653L182 86.5735L180.909 89.5761M169.5 77.0653V82.0696L180.909 89.5761" stroke="black"/>
        </g>
        <g id="11">
          <path d="M149.005 90.9889L151.431 107.627L167.249 109.877L162.261 127.644L159.896 132.053L145.966 124.57L139.479 134.148L137.587 137.675L123.619 125.628L125.038 122.982L135.748 113.401L129.242 101.387L131.607 96.9773L149.005 90.9889Z" fill="#F0C189"/>
          <path d="M162.261 127.644L167.249 109.877L151.431 107.627L149.005 90.9889L131.607 96.9773M162.261 127.644L147.658 122.071L145.966 124.57M162.261 127.644L159.896 132.053L145.966 124.57M139.479 134.148L125.038 122.982M139.479 134.148L145.966 124.57M139.479 134.148L137.587 137.675L123.619 125.628L125.038 122.982M125.038 122.982L135.748 113.401M131.607 96.9773L138.128 111.272L135.748 113.401M131.607 96.9773L129.242 101.387L135.748 113.401" stroke="black"/>
        </g>
        <g id="12">
          <path d="M103.996 109.291L104.398 126.101L119.828 130.245L112.734 147.279L109.855 151.371L96.9286 142.259L89.334 150.983L87.0307 154.257L74.6176 140.61L76.3451 138.155L88.1323 129.937L83.1232 117.225L86.0023 113.134L103.996 109.291Z" fill="#F0C189"/>
          <path d="M112.734 147.279L119.828 130.245L104.398 126.101L103.996 109.291L86.0023 113.134M112.734 147.279L98.9098 139.983L96.9286 142.259M112.734 147.279L109.855 151.371L96.9286 142.259M89.334 150.983L76.3451 138.155M89.334 150.983L96.9286 142.259M89.334 150.983L87.0307 154.257L74.6176 140.61L76.3451 138.155M76.3451 138.155L88.1323 129.937M86.0023 113.134L90.7516 128.111L88.1323 129.937M86.0023 113.134L83.1232 117.225L88.1323 129.937" stroke="black"/>
        </g>
        <g id="13">
          <path d="M39.7308 148L55.2394 154.466L65.2953 142.04L77.9611 155.452L80.5256 159.748L66.9531 167.864L71.8301 178.356L73.8817 181.793L56.3779 187.596L54.8393 185.018L52.1295 170.899L38.4886 170.312L35.9242 166.016L39.7308 148Z" fill="#F0C189"/>
          <path d="M77.9611 155.452L65.2953 142.04L55.2394 154.466L39.7308 148L35.9242 166.016M77.9611 155.452L65.6809 165.128L66.9531 167.864M77.9611 155.452L80.5256 159.748L66.9531 167.864M71.8301 178.356L54.8393 185.018M71.8301 178.356L66.9531 167.864M71.8301 178.356L73.8817 181.793L56.3779 187.596L54.8393 185.018M54.8393 185.018L52.1295 170.899M35.9242 166.016L51.5273 167.762L52.1295 170.899M35.9242 166.016L38.4886 170.312L52.1295 170.899" stroke="black"/>
        </g>
        <g id="14">
          <path d="M80.4365 188.783L86.0962 204.615L102.046 203.696L100.66 222.099L99.2109 226.888L84.0787 222.304L79.6082 232.975L78.4493 236.807L62.3802 227.755L63.2494 224.881L71.8594 213.373L63.1126 202.88L64.5613 198.09L80.4365 188.783Z" fill="#F0C189"/>
          <path d="M100.66 222.099L102.046 203.696L86.0962 204.615L80.4365 188.783L64.5613 198.09M100.66 222.099L85.245 219.52L84.0787 222.304M100.66 222.099L99.2109 226.888L84.0787 222.304M79.6082 232.975L63.2494 224.881M79.6082 232.975L84.0787 222.304M79.6082 232.975L78.4493 236.807L62.3802 227.755L63.2494 224.881M63.2494 224.881L71.8594 213.373M64.5613 198.09L73.7727 210.815L71.8594 213.373M64.5613 198.09L63.1126 202.88L71.8594 213.373" stroke="black"/>
        </g>
        <g id="15">
          <path d="M106.574 203.131L123.117 200.197L124.883 184.305L142.778 188.755L147.253 190.987L140.203 205.15L149.966 211.349L153.546 213.134L141.939 227.474L139.254 226.135L129.36 215.712L117.559 222.585L113.084 220.354L106.574 203.131Z" fill="#F0C189"/>
          <path d="M142.778 188.755L124.883 184.305L123.117 200.197L106.574 203.131L113.084 220.354M142.778 188.755L137.656 203.533L140.203 205.15M142.778 188.755L147.253 190.987L140.203 205.15M149.966 211.349L139.254 226.135M149.966 211.349L140.203 205.15M149.966 211.349L153.546 213.134L141.939 227.474L139.254 226.135M139.254 226.135L129.36 215.712M113.084 220.354L127.161 213.396L129.36 215.712M113.084 220.354L117.559 222.585L129.36 215.712" stroke="black"/>
        </g>
        <g id="17">
          <path d="M90.1781 280.928L106.685 284.054L113.965 269.82L129.122 280.33L132.517 284.004L120.908 294.747L127.842 304.007L130.558 306.946L114.626 316.237L112.589 314.033L107.028 300.776L93.5597 303.017L90.1652 299.343L90.1781 280.928Z" fill="#F0C189"/>
          <path d="M129.122 280.33L113.965 269.82L106.685 284.054L90.1781 280.928L90.1652 299.343M129.122 280.33L119.099 292.332L120.908 294.747M129.122 280.33L132.517 284.004L120.908 294.747M127.842 304.007L112.589 314.033M127.842 304.007L120.908 294.747M127.842 304.007L130.558 306.946L114.626 316.237L112.589 314.033M112.589 314.033L107.028 300.776M90.1652 299.343L105.793 297.83L107.028 300.776M90.1652 299.343L93.5597 303.017L107.028 300.776" stroke="black"/>
        </g>
        <g id="16">
          <path d="M158.456 239.556L158.605 256.37L173.971 260.746L166.621 277.672L163.681 281.719L150.893 272.414L143.168 281.023L140.816 284.261L128.61 270.428L130.374 268L142.283 259.961L137.466 247.174L140.406 243.127L158.456 239.556Z" fill="#F0C189"/>
          <path d="M166.621 277.672L173.971 260.746L158.605 256.37L158.456 239.556L140.406 243.127M166.621 277.672L152.909 270.168L150.893 272.414M166.621 277.672L163.681 281.719L150.893 272.414M143.168 281.023L130.374 268M143.168 281.023L150.893 272.414M143.168 281.023L140.816 284.261L128.61 270.428L130.374 268M130.374 268L142.283 259.961M140.406 243.127L144.93 258.174L142.283 259.961M140.406 243.127L137.466 247.174L142.283 259.961" stroke="black"/>
        </g>
        <g id="6">
          <path d="M270.164 199.131L286.918 200.376L292.55 185.412L308.793 194.147L312.58 197.416L302.253 209.398L310.185 217.817L313.214 220.432L298.429 231.46L296.157 229.498L289.14 216.953L276.009 220.697L272.223 217.429L270.164 199.131Z" fill="#F0C189"/>
          <path d="M308.793 194.147L292.55 185.412L286.918 200.376L270.164 199.131L272.223 217.429M308.793 194.147L300.184 207.202L302.253 209.398M308.793 194.147L312.58 197.416L302.253 209.398M310.185 217.817L296.157 229.498M310.185 217.817L302.253 209.398M310.185 217.817L313.214 220.432L298.429 231.46L296.157 229.498M296.157 229.498L289.14 216.953M272.223 217.429L287.581 214.165L289.14 216.953M272.223 217.429L276.009 220.697L289.14 216.953" stroke="black"/>
        </g>
        <g id="3">
          <path d="M269.85 104.587L271.375 121.332L287.048 124.433L281.109 141.904L278.51 146.18L265.003 137.954L258.009 147.168L255.93 150.588L242.632 137.803L244.192 135.238L255.403 126.249L249.555 113.901L252.154 109.626L269.85 104.587Z" fill="#F0C189"/>
          <path d="M281.109 141.904L287.048 124.433L271.375 121.332L269.85 104.587L252.154 109.626M281.109 141.904L266.828 135.551L265.003 137.954M281.109 141.904L278.51 146.18L265.003 137.954M258.009 147.168L244.192 135.238M258.009 147.168L265.003 137.954M258.009 147.168L255.93 150.588L242.632 137.803L244.192 135.238M244.192 135.238L255.403 126.249M252.154 109.626L257.894 124.252L255.403 126.249M252.154 109.626L249.555 113.901L255.403 126.249" stroke="black"/>
        </g>
        <g id="8">
          <path d="M258.185 277.183L273.16 284.806L284.127 273.178L295.742 287.512L297.974 291.99L283.827 299.054L287.896 309.885L289.682 313.467L271.789 317.927L270.45 315.24L268.816 300.956L255.259 299.337L253.027 294.859L258.185 277.183Z" fill="#F0C189"/>
          <path d="M295.742 287.512L284.127 273.178L273.16 284.806L258.185 277.183L253.027 294.859M295.742 287.512L282.765 296.228L283.827 299.054M295.742 287.512L297.974 291.99L283.827 299.054M287.896 309.885L270.45 315.24M287.896 309.885L283.827 299.054M287.896 309.885L289.682 313.467L271.789 317.927L270.45 315.24M270.45 315.24L268.816 300.956M253.027 294.859L268.453 297.782L268.816 300.956M253.027 294.859L255.259 299.337L268.816 300.956" stroke="black"/>
        </g>
        <g id="7">
          <path d="M322.048 233.441L323.972 250.145L339.714 252.872L334.193 270.48L331.696 274.816L317.998 266.915L311.225 276.293L309.228 279.761L295.629 267.297L297.127 264.696L308.121 255.442L301.981 243.237L304.477 238.901L322.048 233.441Z" fill="#F0C189"/>
          <path d="M334.193 270.48L339.714 252.872L323.972 250.145L322.048 233.441L304.477 238.901M334.193 270.48L319.764 264.468L317.998 266.915M334.193 270.48L331.696 274.816L317.998 266.915M311.225 276.293L297.127 264.696M311.225 276.293L317.998 266.915M311.225 276.293L309.228 279.761L295.629 267.297L297.127 264.696M297.127 264.696L308.121 255.442M304.477 238.901L310.564 253.386L308.121 255.442M304.477 238.901L301.981 243.237L308.121 255.442" stroke="black"/>
        </g>
        <g id="4">
          <path d="M209.411 145.825L224.196 153.81L235.443 142.453L246.705 157.066L248.828 161.597L234.512 168.314L238.317 179.241L240.015 182.866L222.019 186.888L220.746 184.17L219.46 169.85L205.946 167.901L203.824 163.37L209.411 145.825Z" fill="#F0C189"/>
          <path d="M246.705 157.066L235.443 142.453L224.196 153.81L209.411 145.825L203.824 163.37M246.705 157.066L233.52 165.464L234.512 168.314M246.705 157.066L248.828 161.597L234.512 168.314M238.317 179.241L220.746 184.17M238.317 179.241L234.512 168.314M238.317 179.241L240.015 182.866L222.019 186.888L220.746 184.17M220.746 184.17L219.46 169.85M203.824 163.37L219.174 166.668L219.46 169.85M203.824 163.37L205.946 167.901L219.46 169.85" stroke="black"/>
        </g>
        <g id="2">
          <path d="M219.746 68.7776L236.388 71.0806L242.954 56.5029L258.613 66.2476L262.185 69.749L251.123 81.0546L258.507 89.9584L261.365 92.7595L245.913 102.83L243.769 100.729L237.559 87.7649L224.218 90.6712L220.645 87.1698L219.746 68.7776Z" fill="#F0C189"/>
          <path d="M258.613 66.2476L242.954 56.5029L236.388 71.0806L219.746 68.7776L220.645 87.1698M258.613 66.2476L249.197 78.7318L251.123 81.0546M258.613 66.2476L262.185 69.749L251.123 81.0546M258.507 89.9584L243.769 100.729M258.507 89.9584L251.123 81.0546M258.507 89.9584L261.365 92.7595L245.913 102.83L243.769 100.729M243.769 100.729L237.559 87.7649M220.645 87.1698L236.179 84.884L237.559 87.7649M220.645 87.1698L224.218 90.6712L237.559 87.7649" stroke="black"/>
        </g>
        <g id="10">
          <path d="M350.768 318.185L354.658 334.542L370.613 335.38L367.217 353.52L365.253 358.121L350.714 351.903L345.101 362.019L343.529 365.7L328.549 354.939L329.728 352.178L339.547 341.684L332.004 330.295L333.968 325.693L350.768 318.185Z" fill="#F0C189"/>
          <path d="M367.217 353.52L370.613 335.38L354.658 334.542L350.768 318.185L333.968 325.693M367.217 353.52L352.178 349.264L350.714 351.903M367.217 353.52L365.253 358.121L350.714 351.903M345.101 362.019L329.728 352.178M345.101 362.019L350.714 351.903M345.101 362.019L343.529 365.7L328.549 354.939L329.728 352.178M329.728 352.178L339.547 341.684M333.968 325.693L341.729 339.353L339.547 341.684M333.968 325.693L332.004 330.295L339.547 341.684" stroke="black"/>
        </g>
        <g id="24">
          <path d="M207.457 491.822L218.54 504.459L233.034 497.73L238.51 515.353L238.924 520.34L223.168 521.65L222.934 533.219L223.265 537.208L204.996 534.71L204.748 531.718L208.522 517.846L196.532 511.31L196.118 506.323L207.457 491.822Z" fill="#F0C189"/>
          <path d="M238.51 515.353L233.034 497.73L218.54 504.459L207.457 491.822L196.118 506.323M238.51 515.353L223.229 518.632L223.168 521.65M238.51 515.353L238.924 520.34L223.168 521.65M222.934 533.219L204.748 531.718M222.934 533.219L223.168 521.65M222.934 533.219L223.265 537.208L204.996 534.71L204.748 531.718M204.748 531.718L208.522 517.846M196.118 506.323L209.361 514.763L208.522 517.846M196.118 506.323L196.532 511.31L208.522 517.846" stroke="black"/>
        </g>
        <g id="23">
          <path d="M225.331 461.402L242.036 459.614L244.89 443.881L262.436 449.553L266.748 452.087L258.741 465.732L268.055 472.587L271.504 474.615L258.939 488.122L256.352 486.601L247.197 475.522L234.952 481.567L230.641 479.032L225.331 461.402Z" fill="#F0C189"/>
          <path d="M262.436 449.553L244.89 443.881L242.036 459.614L225.331 461.402L230.641 479.032M262.436 449.553L256.311 463.943L258.741 465.732M262.436 449.553L266.748 452.087L258.741 465.732M268.055 472.587L256.352 486.601M268.055 472.587L258.741 465.732M268.055 472.587L271.504 474.615L258.939 488.122L256.352 486.601M256.352 486.601L247.197 475.522M230.641 479.032L245.163 473.06L247.197 475.522M230.641 479.032L234.952 481.567L247.197 475.522" stroke="black"/>
        </g>
        <g id="22">
          <path d="M197.504 446.024L203.137 461.865L219.089 460.972L217.672 479.372L216.215 484.16L201.091 479.55L196.603 490.214L195.438 494.044L179.383 484.966L180.257 482.094L188.886 470.599L180.157 460.092L181.613 455.305L197.504 446.024Z" fill="#F0C189"/>
          <path d="M217.672 479.372L219.089 460.972L203.137 461.865L197.504 446.024L181.613 455.305M217.672 479.372L202.262 476.768L201.091 479.55M217.672 479.372L216.215 484.16L201.091 479.55M196.603 490.214L180.257 482.094M196.603 490.214L201.091 479.55M196.603 490.214L195.438 494.044L179.383 484.966L180.257 482.094M180.257 482.094L188.886 470.599M181.613 455.305L190.804 468.045L188.886 470.599M181.613 455.305L180.157 460.092L188.886 470.599" stroke="black"/>
        </g>
        <g id="21">
          <path d="M153.962 401.861L170.086 406.584L178.719 393.129L192.779 405.068L195.799 409.057L183.199 418.615L189.197 428.507L191.613 431.697L174.851 439.389L173.039 436.996L168.797 423.26L155.175 424.174L152.154 420.186L153.962 401.861Z" fill="#F0C189"/>
          <path d="M192.779 405.068L178.719 393.129L170.086 406.584L153.962 401.861L152.154 420.186M192.779 405.068L181.634 416.034L183.199 418.615M192.779 405.068L195.799 409.057L183.199 418.615M189.197 428.507L173.039 436.996M189.197 428.507L183.199 418.615M189.197 428.507L191.613 431.697L174.851 439.389L173.039 436.996M173.039 436.996L168.797 423.26M152.154 420.186L167.855 420.207L168.797 423.26M152.154 420.186L155.175 424.174L168.797 423.26" stroke="black"/>
        </g>
        <g id="20">
          <path d="M189.397 381.789L204.564 374.557L202.043 358.767L220.476 358.293L225.383 359.253L222.351 374.783L233.41 378.159L237.335 378.926L229.958 395.84L227.014 395.264L214.705 387.851L205.157 397.618L200.25 396.659L189.397 381.789Z" fill="#F0C189"/>
          <path d="M220.476 358.293L202.043 358.767L204.564 374.557L189.397 381.789L200.25 396.659M220.476 358.293L219.466 373.902L222.351 374.783M220.476 358.293L225.383 359.253L222.351 374.783M233.41 378.159L227.014 395.264M233.41 378.159L222.351 374.783M233.41 378.159L237.335 378.926L229.958 395.84L227.014 395.264M227.014 395.264L214.705 387.851M200.25 396.659L211.97 386.203L214.705 387.851M200.25 396.659L205.157 397.618L214.705 387.851" stroke="black"/>
        </g>
        <g id="19">
          <path d="M166.967 327.763L183.603 325.418L185.93 309.599L203.657 314.681L208.05 317.069L200.503 330.974L210.041 337.515L213.555 339.426L201.448 353.345L198.812 351.912L189.293 341.145L177.256 347.595L172.863 345.207L166.967 327.763Z" fill="#F0C189"/>
          <path d="M203.657 314.681L185.93 309.599L183.603 325.418L166.967 327.763L172.863 345.207M203.657 314.681L198.015 329.268L200.503 330.974M203.657 314.681L208.05 317.069L200.503 330.974M210.041 337.515L198.812 351.912M210.041 337.515L200.503 330.974M210.041 337.515L213.555 339.426L201.448 353.345L198.812 351.912M198.812 351.912L189.293 341.145M172.863 345.207L187.177 338.752L189.293 341.145M172.863 345.207L177.256 347.595L189.293 341.145" stroke="black"/>
        </g>
        <g id="18">
          <path d="M144.809 312.498L148.243 328.957L164.169 330.239L160.27 348.277L158.178 352.822L143.818 346.201L137.926 356.157L136.252 359.793L121.577 348.619L122.833 345.892L132.94 335.676L125.716 324.08L127.808 319.535L144.809 312.498Z" fill="#F0C189"/>
          <path d="M160.27 348.277L164.169 330.239L148.243 328.957L144.809 312.498L127.808 319.535M160.27 348.277L145.355 343.604L143.818 346.201M160.27 348.277L158.178 352.822L143.818 346.201M137.926 356.157L122.833 345.892M137.926 356.157L143.818 346.201M137.926 356.157L136.252 359.793L121.577 348.619L122.833 345.892M122.833 345.892L132.94 335.676M127.808 319.535L135.186 333.406L132.94 335.676M127.808 319.535L125.716 324.08L132.94 335.676" stroke="black"/>
        </g>
        <g id="5">
          <path d="M232.5 190.163L242.5 203.674L257.5 198.169L261.5 216.185V221.189H245.69L244.5 232.699V236.702L226.5 232.699V229.696L231.409 216.185L220 208.678V203.674L232.5 190.163Z" fill="#F0C189"/>
          <path d="M261.5 216.185L257.5 198.169L242.5 203.674L232.5 190.163L220 203.674M261.5 216.185L246 218.187L245.69 221.189M261.5 216.185V221.189H245.69M244.5 232.699L226.5 229.696M244.5 232.699L245.69 221.189M244.5 232.699V236.702L226.5 232.699V229.696M226.5 229.696L231.409 216.185M220 203.674L232.5 213.182L231.409 216.185M220 203.674V208.678L231.409 216.185" stroke="black"/>
        </g>
      </g>
      <g id="BuildingsParameter">
        <path id="P2" d="M263 68L242.5 55.5L236.5 70.5L219 68L220 91L236.5 89L244.5 103.5L262 92.5L252.5 81L263 68Z"/>
        <path id="P3" d="M279.5 147.5L287.5 124L271.92 120.761L270.64 103.626L249 111L254.5 125.5L241.799 137.252L256.5 151L265 139L279.5 147.5Z"/>
        <path id="P1" d="M212 94.5L207 71L192.5 76.5L182.41 62.0187L167.5 80L180.5 89L175.5 106L194 110L196 94.5L212 94.5Z"/>
        <path id="P13" d="M82.5 160L65 140.5L54.7053 153L39 146L34 170.5L51 172L54.7053 189L74.7639 181.281L68 168.5L82.5 160Z"/>
        <path id="P14" d="M101.5 228.5L103.5 202.5L87 204L81 187.5L60.8958 199L70.8588 213.529L60.8958 228.5L79 238.5L85 223.5L101.5 228.5Z"/>
        <path id="P15" d="M149 190L124 182.5L122.5 199.5L105.5 202L114 225L129 217L142.24 229.5L155 213L142.24 204.5L149 190Z"/>
        <path id="P16" d="M164.5 283.5L175.5 260L159.585 256.412L159.585 238L136 243L141.786 259.274L127.748 269.283L141 286L151 274L164.5 283.5Z"/>
        <path id="P4" d="M250 161L235.542 141L224 152.5L209 145L202.5 167L218.915 170.599L221 187.5L240.597 182.861L235.542 168.415L250 161Z"/>
        <path id="P5" d="M263.5 221.884L258.5 197L242.336 203.161L232.028 189.414L217.25 207.152L230.37 216.645L225.841 233.28L244.594 237.094L246.301 221.884L263.5 221.884Z"/>
        <path id="P6" d="M313.995 196L292 184L286.5 199.5L269.5 198.5L272 222L288.5 218L298 233L313.995 220.5L303.34 208.977L313.995 196Z"/>
        <path id="P8" d="M299.5 292L284 272L273.14 283.387L257.5 276.5L251.5 299.5L268 301.5L271 319L289.5 314L284.658 298.671L299.5 292Z"/>
        <path id="P10" d="M367 359.5L372 334.5L355.5 333.5L351.605 317L329.5 326.5L338.5 342L326 354L344.27 366.578L351.605 352.5L367 359.5Z"/>
        <path id="P7" d="M333 276L341 252.5L325 249.5L322.419 232.938L300.5 239L307 255L294.487 267.322L309.5 281.5L318 268.5L333 276Z"/>
        <path id="P11" d="M160.86 133.018L169 109L152 107L150.11 90.3248L127 98L134.5 113L122 124.5L137.5 139L146.762 125.635L160.86 133.018Z"/>
        <path id="P12" d="M111 153.5L120.5 129.933L106 125.5L104.304 108.901L81.4999 113.5L86.704 129.933L73.2808 140.753L86.2364 154.838L96.5371 143.518L111 153.5Z"/>
        <path id="P17" d="M134.5 283.5L114 268.5L106.772 282.5L89 279.5L89 303.5L106.772 301.412L113 318.5L130.998 307.209L122 295L134.5 283.5Z"/>
        <path id="P18" d="M159.253 352.942L164.896 329.481L148.863 328.001L145.253 311.201L123 320.5L131.5 335.5L120 348.5L136.5 361L144.63 346.664L159.253 352.942Z"/>
        <path id="P19" d="M210 316L185 308L182.5 324.5L166 327L173.5 349.5L189.038 341.872L201.043 355L215 339.5L202 331L210 316Z"/>
        <path id="P20" d="M226.5 357.5L201 357.5L203.16 373.894L188 381.5L203.16 401.5L215 389.5L231 398L238.5 378.5L223.5 373.894L226.5 357.5Z"/>
        <path id="P21" d="M196.692 409.085L178.997 392.679L169.857 405.934L153.442 400.858L151.892 423.893L168.087 423.875L174.187 440.001L191.607 432.077L184.059 418.763L196.692 409.085Z"/>
        <path id="P22" d="M216.581 484.224L219.212 460.238L203.12 460.797L197.414 444.589L177.993 457.072L187.657 470.066L178.343 484.574L195.086 493.842L201.281 479.846L216.581 484.224Z"/>
        <path id="P23" d="M266.942 451.12L244.324 442.713L240.938 458.454L223.828 460.03L231.191 481.911L246.151 475.711L257.946 488.286L271.022 474.312L258.961 464.888L266.942 451.12Z"/>
        <path id="P24" d="M239.513 521.056L233.277 497.746L218.481 504.096L207.291 491.056L193.711 509.726L207.426 518.337L203.999 535.234L222.963 537.807L223.667 522.518L239.513 521.056Z"/>
      </g>
      <g id="Park">
        <path d="M183 193.666L169 199.17H163.5L158.5 207.678V215.684H163.5L173 242.207L175 247.212L185 252.216L191 249.714L195.5 256.72V260.723L203.5 276.737H207L212.5 288.747L211 295.253L219.5 311.267L223.5 314.77L225.5 323.277H219.5L216 337.289L219.5 345.796H223.5L230.5 367.815V372.819L241.5 375.322H251V379.325L247.5 382.828L241.5 393.837L256.5 426.866L270.5 429.868H275V431.87L270.5 434.372L266.5 441.879L275 459.394L290.5 462.897L302 456.892L307.5 444.381L299.5 429.868L288.5 426.866V423.363L295 420.36L297.5 408.85L288.5 390.334L280.5 375.322L273 372.819H266.5L264 369.817L266.5 367.815L270.5 363.311L273 350.801L270.5 348.298H266.5L259.5 330.283L262 325.779L259.5 320.775L244.5 314.77H238.5L235.5 311.267L225.5 287.746L219.5 276.737V271.733L211 254.218L206.5 245.21L209 242.207L214.5 226.694V223.191L209 219.688L200 199.17L203 195.667L200 189.162H187H183V193.666Z" fill="#70A57F"/>
        <path d="M395 456.892L357.5 431.87V429.868L388 390.334H395V456.892Z" fill="#70A57F"/>
        <path d="M183 193.666L169 199.17H163.5L158.5 207.678V215.684H163.5L173 242.207L175 247.212L185 252.216L191 249.714L195.5 256.72V260.723L203.5 276.737H207L212.5 288.747L211 295.253L219.5 311.267L223.5 314.77L225.5 323.277H219.5L216 337.289L219.5 345.796H223.5L230.5 367.815V372.819L241.5 375.322H251V379.325L247.5 382.828L241.5 393.837L256.5 426.866L270.5 429.868H275V431.87L270.5 434.372L266.5 441.879L275 459.394L290.5 462.897L302 456.892L307.5 444.381L299.5 429.868L288.5 426.866V423.363L295 420.36L297.5 408.85L288.5 390.334L280.5 375.322L273 372.819H266.5L264 369.817L266.5 367.815L270.5 363.311L273 350.801L270.5 348.298H266.5L259.5 330.283L262 325.779L259.5 320.775L244.5 314.77H238.5L235.5 311.267L225.5 287.746L219.5 276.737V271.733L211 254.218L206.5 245.21L209 242.207L214.5 226.694V223.191L209 219.688L200 199.17L203 195.667L200 189.162H187H183V193.666Z" stroke="black" stroke-width="0.5"/>
        <path d="M395 456.892L357.5 431.87V429.868L388 390.334H395V456.892Z" stroke="black" stroke-width="0.5"/>
      </g>
      <g id="OtherBuildingsInAskan">
        <path id="BigMosque" d="M174.5 146.625L143 160.137L156.5 191.163L187.5 176.651L182 160.137L187.5 156.634L185.5 154.132L178 156.634L174.5 146.625Z" fill="#333333" stroke="#878787"/>
        <path id="MatherComplex" d="M239 246.711L222.5 248.713L224.5 276.737L245 293.752L246.5 291.249L256.5 290.248V282.742H253L251 271.232H245L241.5 262.725L239 246.711Z" fill="#92806B" stroke="#404040"/>
        <path id="Community Hall" d="M185.5 273.734L179 278.238L191 298.255L198.5 293.251L185.5 273.734Z" fill="#92806B" stroke="#404040"/>
        <path id="SmallMosque" d="M327 364.312L312 374.821L315.5 387.332H327V384.329L337 374.821L327 364.312Z" fill="#333333" stroke="#878787"/>
        <path id="Football  field" d="M320.5 404.347L304.5 411.353L309.5 419.86L324.5 413.354L320.5 404.347Z" fill="#4E7559" stroke="black" stroke-width="0.5"/>
      </g>
    </g>
    <g id="ExtraBlocks">
      <path d="M71.5 290.249L27.5 308.764L128 530.455L177.5 510.938L71.5 290.249Z" fill="#605E5E" fill-opacity="0.3"/>
      <path d="M94.5 481.413L59 498.427L84.5 553.975L123 534.959L94.5 481.413Z" fill="#605E5E" fill-opacity="0.3"/>
      <path d="M62 400.844L19.5 418.859L53 493.423L92 475.408L62 400.844Z" fill="#605E5E" fill-opacity="0.3"/>
      <path d="M208 47.54L187.5 2.00086H238.5L249 27.5228L208 47.54Z" fill="#605E5E" fill-opacity="0.3"/>
      <path d="M183.5 14.0112L110 47.54L124.5 86.5735L199 47.54L183.5 14.0112Z" fill="#605E5E" fill-opacity="0.3"/>
      <path d="M103 50.0421L84.5 59.5503L99 96.0817L117 86.5735L103 50.0421Z" fill="#605E5E" fill-opacity="0.3"/>
      <path d="M64.5 28.0232L42.5 35.5297L71.5 106.591L93 100.085L64.5 28.0232Z" fill="#605E5E" fill-opacity="0.3"/>
      <path d="M64.5 109.593L47.5 68.0576L3.50003 86.5735V117.1L7.50003 137.617L64.5 109.593Z" fill="#605E5E" fill-opacity="0.3"/>
      <path d="M92 14.0112L71 25.0206L81 54.0456L179 6.0043V2.00086H134.5L100.5 16.5133L92 14.0112Z" fill="#605E5E" fill-opacity="0.3"/>
      <path d="M34.5 39.5331L3.50003 54.0456V81.5692L42.5 59.5503L34.5 39.5331Z" fill="#605E5E" fill-opacity="0.3"/>
      <path d="M64.5 281.741L3.50003 149.127V260.223L24.5 301.258L64.5 281.741Z" fill="#605E5E" fill-opacity="0.3"/>
      <path d="M42.5 354.804L27.5 349.299H24.5L3.50003 361.81V418.859L59 393.337L42.5 354.804Z" fill="#605E5E" fill-opacity="0.3"/>
      <path d="M47.5 493.423L14.5 422.362L3.50003 431.87L6.00003 439.377L11.5 450.386L14.5 456.892V461.896V468.402L11.5 475.408L3.50003 481.413V519.445L47.5 493.423Z" fill="#605E5E" fill-opacity="0.3"/>
      <path d="M75 553.975L51.5 500.93L3.50003 524.45L6.00003 576.494L19.5 562.983V559.48H24.5H31L51.5 576.494L75 553.975Z" fill="#605E5E" fill-opacity="0.3"/>
      <path d="M177.5 514.942L84.5 559.48V562.983L97.5 579.497L108 576.494H114.5L119.5 583H123H197.5V579.497V568.988V553.975L194.5 546.969L191 539.963L188 531.456L185.5 524.45L177.5 514.942Z" fill="#605E5E" fill-opacity="0.3"/>
      <path d="M31.5 331.784L3.50003 344.295V354.804L27.5 342.293H36.5L31.5 331.784Z" fill="#605E5E" fill-opacity="0.3"/>
      <path d="M326.5 25.0206L283.5 43.0361L308.5 124.606L313.5 127.108L321 149.127L374.5 127.108L326.5 25.0206Z" fill="#605E5E" fill-opacity="0.3"/>
      <path d="M326.5 154.632L394 127.108V321.776L326.5 154.632Z" fill="#605E5E" fill-opacity="0.3"/>
      <path d="M388 326.78L380 331.784L388 344.295L392 339.791L388 326.78Z" fill="#605E5E" fill-opacity="0.3"/>
      <path d="M388 361.81L261.5 530.455L273 524.45V519.445L292.5 493.423H295.5L299.5 485.416L312.5 468.402L319.5 461.896L323 453.889L335.5 439.377L392 361.81H388Z" fill="#605E5E" fill-opacity="0.3"/>
      <path d="M374 553.975L304 500.93L231.5 583H394V546.969L371 576.494H365V572.991L374 553.975Z" fill="#605E5E" fill-opacity="0.3"/>
      <path d="M249 2.00086L269 47.54L253 2.00086H249Z" fill="#605E5E" fill-opacity="0.3"/>
      <path d="M278 35.5297L269 2.00086H361.5L278 35.5297Z" fill="#605E5E" fill-opacity="0.3"/>
      <path d="M358.5 77.5658L334 21.5176L369.5 6.0043L392 59.5503L358.5 77.5658Z" fill="#605E5E" fill-opacity="0.3"/>
      <path d="M380 124.606L361.5 81.5692L394 68.0576V117.1L380 124.606Z" fill="#605E5E" fill-opacity="0.3"/>
      <path d="M374.5 2.00086L392 35.5297L394 2.00086H374.5Z" fill="#605E5E" fill-opacity="0.3"/>
      <path d="M88 9.00688L7.50003 47.54H1.00003V1L84.5 2.00086L88 9.00688Z" fill="#605E5E" fill-opacity="0.3"/>
      <path d="M117 2.00086L99 9.00688L93 1L117 2.00086Z" fill="#605E5E" fill-opacity="0.3"/>
      <path d="M27.5 326.78L11.5 295.253L3.50003 301.258V339.791L27.5 326.78Z" fill="#605E5E" fill-opacity="0.3"/>
      <path d="M71.5 290.249L27.5 308.764L128 530.455L177.5 510.938L71.5 290.249Z" stroke="black" stroke-width="0.7"/>
      <path d="M94.5 481.413L59 498.427L84.5 553.975L123 534.959L94.5 481.413Z" stroke="black" stroke-width="0.7"/>
      <path d="M62 400.844L19.5 418.859L53 493.423L92 475.408L62 400.844Z" stroke="black" stroke-width="0.7"/>
      <path d="M208 47.54L187.5 2.00086H238.5L249 27.5228L208 47.54Z" stroke="black" stroke-width="0.7"/>
      <path d="M183.5 14.0112L110 47.54L124.5 86.5735L199 47.54L183.5 14.0112Z" stroke="black" stroke-width="0.7"/>
      <path d="M103 50.0421L84.5 59.5503L99 96.0817L117 86.5735L103 50.0421Z" stroke="black" stroke-width="0.7"/>
      <path d="M64.5 28.0232L42.5 35.5297L71.5 106.591L93 100.085L64.5 28.0232Z" stroke="black" stroke-width="0.7"/>
      <path d="M64.5 109.593L47.5 68.0576L3.50003 86.5735V117.1L7.50003 137.617L64.5 109.593Z" stroke="black" stroke-width="0.7"/>
      <path d="M92 14.0112L71 25.0206L81 54.0456L179 6.0043V2.00086H134.5L100.5 16.5133L92 14.0112Z" stroke="black" stroke-width="0.7"/>
      <path d="M34.5 39.5331L3.50003 54.0456V81.5692L42.5 59.5503L34.5 39.5331Z" stroke="black" stroke-width="0.7"/>
      <path d="M64.5 281.741L3.50003 149.127V260.223L24.5 301.258L64.5 281.741Z" stroke="black" stroke-width="0.7"/>
      <path d="M42.5 354.804L27.5 349.299H24.5L3.50003 361.81V418.859L59 393.337L42.5 354.804Z" stroke="black" stroke-width="0.7"/>
      <path d="M47.5 493.423L14.5 422.362L3.50003 431.87L6.00003 439.377L11.5 450.386L14.5 456.892V461.896V468.402L11.5 475.408L3.50003 481.413V519.445L47.5 493.423Z" stroke="black" stroke-width="0.7"/>
      <path d="M75 553.975L51.5 500.93L3.50003 524.45L6.00003 576.494L19.5 562.983V559.48H24.5H31L51.5 576.494L75 553.975Z" stroke="black" stroke-width="0.7"/>
      <path d="M177.5 514.942L84.5 559.48V562.983L97.5 579.497L108 576.494H114.5L119.5 583H123H197.5V579.497V568.988V553.975L194.5 546.969L191 539.963L188 531.456L185.5 524.45L177.5 514.942Z" stroke="black" stroke-width="0.7"/>
      <path d="M31.5 331.784L3.50003 344.295V354.804L27.5 342.293H36.5L31.5 331.784Z" stroke="black" stroke-width="0.7"/>
      <path d="M326.5 25.0206L283.5 43.0361L308.5 124.606L313.5 127.108L321 149.127L374.5 127.108L326.5 25.0206Z" stroke="black" stroke-width="0.7"/>
      <path d="M326.5 154.632L394 127.108V321.776L326.5 154.632Z" stroke="black" stroke-width="0.7"/>
      <path d="M388 326.78L380 331.784L388 344.295L392 339.791L388 326.78Z" stroke="black" stroke-width="0.7"/>
      <path d="M388 361.81L261.5 530.455L273 524.45V519.445L292.5 493.423H295.5L299.5 485.416L312.5 468.402L319.5 461.896L323 453.889L335.5 439.377L392 361.81H388Z" stroke="black" stroke-width="0.7"/>
      <path d="M374 553.975L304 500.93L231.5 583H394V546.969L371 576.494H365V572.991L374 553.975Z" stroke="black" stroke-width="0.7"/>
      <path d="M249 2.00086L269 47.54L253 2.00086H249Z" stroke="black" stroke-width="0.7"/>
      <path d="M278 35.5297L269 2.00086H361.5L278 35.5297Z" stroke="black" stroke-width="0.7"/>
      <path d="M358.5 77.5658L334 21.5176L369.5 6.0043L392 59.5503L358.5 77.5658Z" stroke="black" stroke-width="0.7"/>
      <path d="M380 124.606L361.5 81.5692L394 68.0576V117.1L380 124.606Z" stroke="black" stroke-width="0.7"/>
      <path d="M374.5 2.00086L392 35.5297L394 2.00086H374.5Z" stroke="black" stroke-width="0.7"/>
      <path d="M88 9.00688L7.50003 47.54H1.00003V1L84.5 2.00086L88 9.00688Z" stroke="black" stroke-width="0.7"/>
      <path d="M117 2.00086L99 9.00688L93 1L117 2.00086Z" stroke="black" stroke-width="0.7"/>
      <path d="M27.5 326.78L11.5 295.253L3.50003 301.258V339.791L27.5 326.78Z" stroke="black" stroke-width="0.7"/>
    </g>
    <g id="ExtraBuildings">
      <path d="M164 489.92L149 496.426V499.929L155.5 516.443L171.5 507.936L164 489.92Z" fill="#F8F9FA" fill-opacity="0.5"/>
      <path d="M143 499.929L127 507.936L135.5 523.449L151.5 516.443L143 499.929Z" fill="#F8F9FA" fill-opacity="0.5"/>
      <path d="M127 471.404L115 476.909L110 480.412L120 502.931L135.5 493.923L127 471.404Z" fill="#F8F9FA" fill-opacity="0.5"/>
      <path d="M135.5 436.874L106 446.883L113 469.402L143 456.892L135.5 436.874Z" fill="#F8F9FA" fill-opacity="0.5"/>
      <path d="M130 418.359L94.5 433.371L97.5 442.88L120 433.371L130 425.365V418.359Z" fill="#F8F9FA" fill-opacity="0.5"/>
      <path d="M94.5 392.837L81 398.341L90 412.854L100 406.849L94.5 392.837Z" fill="#F8F9FA" fill-opacity="0.5"/>
      <path d="M113 392.837L103 398.341L113 412.854L120 406.849L113 392.837Z" fill="#F8F9FA" fill-opacity="0.5"/>
      <path d="M110 375.822L97.5 381.327L94.5 384.83L97.5 392.837L115 384.83L110 375.822Z" fill="#F8F9FA" fill-opacity="0.5"/>
      <path d="M94.5 350.801L68 361.81L73.5 381.327L100 367.815L94.5 350.801Z" fill="#F8F9FA" fill-opacity="0.5"/>
      <path d="M68 296.754L35 308.264L44.5 336.288L81 321.776L68 296.754Z" fill="#F8F9FA" fill-opacity="0.5"/>
      <path d="M87.5 329.782L59.5 339.791L65.5 355.304L94.5 343.294L87.5 329.782Z" fill="#F8F9FA" fill-opacity="0.5"/>
      <path d="M90 418.359L81 420.861L87.5 425.365H90V418.359Z" fill="#F8F9FA" fill-opacity="0.5"/>
      <path d="M81 496.426L68 502.931L78 520.947L90 516.443L81 496.426Z" fill="#F8F9FA" fill-opacity="0.5"/>
      <path d="M96 491.922L85 496.426L92.5 514.441L106 507.936L96 491.922Z" fill="#F8F9FA" fill-opacity="0.5"/>
      <path d="M92.5 516.443L81 523.449L87.5 543.466L103 534.959L92.5 516.443Z" fill="#F8F9FA" fill-opacity="0.5"/>
      <path d="M110 511.939L96 516.443L110 531.956H115L110 511.939Z" fill="#F8F9FA" fill-opacity="0.5"/>
      <path d="M61.5 411.353L46 416.357L53 433.371L65.5 425.365L61.5 411.353Z" fill="#F8F9FA" fill-opacity="0.5"/>
      <path d="M53 452.888L41 459.894L49 471.404L61.5 466.4L53 452.888Z" fill="#F8F9FA" fill-opacity="0.5"/>
      <path d="M85 459.894L65.5 466.4L73.5 476.909L87.5 471.404L85 459.894Z" fill="#F8F9FA" fill-opacity="0.5"/>
      <path d="M73.5 442.88L59.5 452.888L65.5 463.898L81 456.892L73.5 442.88Z" fill="#F8F9FA" fill-opacity="0.5"/>
      <path d="M65.5 469.402L49 476.909L53 489.92L71 482.914L65.5 469.402Z" fill="#F8F9FA" fill-opacity="0.5"/>
      <path d="M206 9.50731L197.5 12.0095L200.5 18.0146L208.5 13.5107L206 9.50731Z" fill="#F8F9FA" fill-opacity="0.5"/>
      <path d="M35 355.304L16 364.312L24 375.822L41 367.815L35 355.304Z" fill="#F8F9FA" fill-opacity="0.5"/>
      <path d="M24.5 387.332L12.5 392.837L19.5 406.849L30 398.341L24.5 387.332Z" fill="#F8F9FA" fill-opacity="0.5"/>
      <path d="M30 469.402L16 480.412V486.917L35 476.909L30 469.402Z" fill="#F8F9FA" fill-opacity="0.5"/>
      <path d="M49 507.936L35 511.939L49 543.466L61.5 537.961L49 507.936Z" fill="#F8F9FA" fill-opacity="0.5"/>
      <path d="M16 558.479L7.00003 546.469V569.488L16 558.479Z" fill="#F8F9FA" fill-opacity="0.5"/>
      <path d="M16 244.209L38 236.702L46 249.213L38 255.719H46L57.5 283.242L51.5 285.745L38 255.719L30 262.224L16 244.209Z" fill="#F8F9FA" fill-opacity="0.5"/>
      <path d="M149.5 46.5391L157.5 63.5537L123.5 74.5632L119.5 59.5503L140.5 50.4425L134 39.0327L145.5 31.0258L149.5 44.037L140.5 50.4425L149.5 46.5391Z" fill="#F8F9FA" fill-opacity="0.5"/>
      <path d="M179 53.5451L169 24.0198H172L183 18.0146L193.5 46.5391L179 53.5451Z" fill="#F8F9FA" fill-opacity="0.5"/>
      <path d="M103 53.5451L91 59.5503L94.5 70.0593L105 66.0559L103 53.5451Z" fill="#F8F9FA" fill-opacity="0.5"/>
      <path d="M72 51.5434L59.5 59.5503L65.5 81.5692L81 74.5632L72 51.5434Z" fill="#F8F9FA" fill-opacity="0.5"/>
      <path d="M20.5 103.588L16 87.0739L38 78.5666L41 95.5813L20.5 103.588Z" fill="#F8F9FA" fill-opacity="0.5"/>
      <path d="M16 109.093L6.00003 115.098L16 129.11L24 125.607L16 109.093Z" fill="#F8F9FA" fill-opacity="0.5"/>
      <path d="M335.5 95.5813L316 103.588L313.5 105.089L316 115.098L337 106.591L335.5 95.5813Z" fill="#F8F9FA" fill-opacity="0.5"/>
      <path d="M326.5 31.0258L294.5 46.5391L305 66.0559L335.5 51.5434L326.5 31.0258Z" fill="#F8F9FA" fill-opacity="0.5"/>
      <path d="M351.5 150.128L342.5 158.635L343 169.144L351.5 174.649L360.5 171.647L374 153.631L370 145.624L360.5 153.631L351.5 150.128Z" fill="#F8F9FA" fill-opacity="0.5"/>
      <path d="M370 174.649L351.5 187.16L360.5 205.676L377 189.662L370 174.649Z" fill="#F8F9FA" fill-opacity="0.5"/>
      <path d="M390.5 145.624L377 153.631L385 169.144L390.5 163.139V145.624Z" fill="#F8F9FA" fill-opacity="0.5"/>
      <path d="M390.5 197.669L360.5 212.181L370 229.696L390.5 221.189V197.669Z" fill="#F8F9FA" fill-opacity="0.5"/>
      <path d="M324 493.923L343 469.402L357.5 456.892L370 469.402L381 482.914L370 499.929L343 469.402L351.5 480.412L333.5 499.929L324 493.923Z" fill="#F8F9FA" fill-opacity="0.5"/>
      <path d="M103 24.0198L81 31.0258V46.5391L108 39.0327L103 24.0198Z" fill="#F8F9FA" fill-opacity="0.5"/>
      <path d="M137.5 9.50731L108 18.0146L114 31.0258L140.5 21.0172L137.5 9.50731Z" fill="#F8F9FA" fill-opacity="0.5"/>
      <path d="M33 44.037L13 53.5451L20.5 66.0559L38 56.5477L33 44.037Z" fill="#F8F9FA" fill-opacity="0.5"/>
      <path d="M41 9.50731L20.5 18.0146L24 39.0327L46 24.0198L41 9.50731Z" fill="#F8F9FA" fill-opacity="0.5"/>
      <path d="M38 496.426L35 483.915L19.5 490.447L24 502.931L38 496.426Z" fill="#F8F9FA" fill-opacity="0.5"/>
      <path d="M140.5 560.981L130 561.982L127 560.981L130 572.991L140.5 569.488V560.981Z" fill="#F8F9FA" fill-opacity="0.5"/>
      <path d="M360.5 28.0232L351.5 31.0258L355 44.037H365.5L360.5 28.0232Z" fill="#F8F9FA" fill-opacity="0.5"/>
      <path d="M370 51.5434L355 56.5477L360.5 70.0593L374 66.0559L370 51.5434Z" fill="#F8F9FA" fill-opacity="0.5"/>
      <path d="M385 78.5666L370 87.0739L367.5 85.5727L377 99.5847L390.5 92.5787L385 78.5666Z" fill="#F8F9FA" fill-opacity="0.5"/>
      <path d="M351.5 87.0739L342.5 92.5787L357.5 121.103L360.5 119.101L351.5 87.0739Z" fill="#F8F9FA" fill-opacity="0.5"/>
      <path d="M335.5 9.50731L305 13.5107L299.5 1.50043H335.5V9.50731Z" fill="#F8F9FA" fill-opacity="0.5"/>
      <path d="M169 39.0327L157.5 44.037L160.5 59.5503L172 56.5477L169 39.0327Z" fill="#F8F9FA" fill-opacity="0.5"/>
      <path d="M128 39.0327L114 46.5391L119.5 53.5451L134 50.4425L128 39.0327Z" fill="#F8F9FA" fill-opacity="0.5"/>
      <path d="M65.5 31.0258L48.5 40.534L51.5 53.5451L68 50.4425L65.5 31.0258Z" fill="#F8F9FA" fill-opacity="0.5"/>
      <path d="M217.5 134.114L212 125.607L225 121.103L229 129.11L217.5 134.114Z" fill="#F8F9FA" fill-opacity="0.5"/>
      <path d="M108 70.0593L94.5 74.5632L100 92.5787L113 81.5692L108 70.0593Z" fill="#F8F9FA" fill-opacity="0.5"/>
      <path d="M225 420.861L212 425.365V433.371L217.5 436.874H229V428.868L225 420.861Z" fill="#F8F9FA" fill-opacity="0.5"/>
      <path d="M309 367.815L289.5 361.81L283.5 375.822L309 384.83V367.815Z" fill="#F8F9FA" fill-opacity="0.5"/>
      <path d="M271 262.224L264.5 249.213L274.5 244.209L279.5 255.719L271 262.224Z" fill="#F8F9FA" fill-opacity="0.5"/>
      <path d="M343 469.402L324 493.923L333.5 499.929L351.5 480.412L343 469.402ZM343 469.402L370 499.929L381 482.914L370 469.402L357.5 456.892L343 469.402ZM38 255.719L46 249.213L38 236.702L16 244.209L30 262.224L38 255.719ZM38 255.719L51.5 285.745L57.5 283.242L46 255.719H38ZM16 491.922L19.5 490.447M19.5 490.447L35 483.915L38 496.426L24 502.931L19.5 490.447ZM140.5 50.4425L119.5 59.5503L123.5 74.5632L157.5 63.5537L149.5 46.5391L140.5 50.4425ZM140.5 50.4425L149.5 44.037L145.5 31.0258L134 39.0327L140.5 50.4425ZM149 496.426L164 489.92L171.5 507.936L155.5 516.443L149 499.929V496.426ZM127 507.936L143 499.929L151.5 516.443L135.5 523.449L127 507.936ZM115 476.909L127 471.404L135.5 493.923L120 502.931L110 480.412L115 476.909ZM106 446.883L135.5 436.874L143 456.892L113 469.402L106 446.883ZM94.5 433.371L130 418.359V425.365L120 433.371L97.5 442.88L94.5 433.371ZM81 398.341L94.5 392.837L100 406.849L90 412.854L81 398.341ZM103 398.341L113 392.837L120 406.849L113 412.854L103 398.341ZM97.5 381.327L110 375.822L115 384.83L97.5 392.837L94.5 384.83L97.5 381.327ZM68 361.81L94.5 350.801L100 367.815L73.5 381.327L68 361.81ZM35 308.264L68 296.754L81 321.776L44.5 336.288L35 308.264ZM59.5 339.791L87.5 329.782L94.5 343.294L65.5 355.304L59.5 339.791ZM81 420.861L90 418.359V425.365H87.5L81 420.861ZM68 502.931L81 496.426L90 516.443L78 520.947L68 502.931ZM85 496.426L96 491.922L106 507.936L92.5 514.441L85 496.426ZM81 523.449L92.5 516.443L103 534.959L87.5 543.466L81 523.449ZM96 516.443L110 511.939L115 531.956H110L96 516.443ZM46 416.357L61.5 411.353L65.5 425.365L53 433.371L46 416.357ZM41 459.894L53 452.888L61.5 466.4L49 471.404L41 459.894ZM65.5 466.4L85 459.894L87.5 471.404L73.5 476.909L65.5 466.4ZM59.5 452.888L73.5 442.88L81 456.892L65.5 463.898L59.5 452.888ZM49 476.909L65.5 469.402L71 482.914L53 489.92L49 476.909ZM197.5 12.0095L206 9.50731L208.5 13.5107L200.5 18.0146L197.5 12.0095ZM16 364.312L35 355.304L41 367.815L24 375.822L16 364.312ZM12.5 392.837L24.5 387.332L30 398.341L19.5 406.849L12.5 392.837ZM16 480.412L30 469.402L35 476.909L16 486.917V480.412ZM35 511.939L49 507.936L61.5 537.961L49 543.466L35 511.939ZM7.00003 546.469L16 558.479L7.00003 569.488V546.469ZM169 24.0198L179 53.5451L193.5 46.5391L183 18.0146L172 24.0198H169ZM91 59.5503L103 53.5451L105 66.0559L94.5 70.0593L91 59.5503ZM59.5 59.5503L72 51.5434L81 74.5632L65.5 81.5692L59.5 59.5503ZM16 87.0739L20.5 103.588L41 95.5813L38 78.5666L16 87.0739ZM6.00003 115.098L16 109.093L24 125.607L16 129.11L6.00003 115.098ZM316 103.588L335.5 95.5813L337 106.591L316 115.098L313.5 105.089L316 103.588ZM294.5 46.5391L326.5 31.0258L335.5 51.5434L305 66.0559L294.5 46.5391ZM342.5 158.635L351.5 150.128L360.5 153.631L370 145.624L374 153.631L360.5 171.647L351.5 174.649L343 169.144L342.5 158.635ZM351.5 187.16L370 174.649L377 189.662L360.5 205.676L351.5 187.16ZM377 153.631L390.5 145.624V163.139L385 169.144L377 153.631ZM360.5 212.181L390.5 197.669V221.189L370 229.696L360.5 212.181ZM81 31.0258L103 24.0198L108 39.0327L81 46.5391V31.0258ZM108 18.0146L137.5 9.50731L140.5 21.0172L114 31.0258L108 18.0146ZM13 53.5451L33 44.037L38 56.5477L20.5 66.0559L13 53.5451ZM20.5 18.0146L41 9.50731L46 24.0198L24 39.0327L20.5 18.0146ZM130 561.982L140.5 560.981V569.488L130 572.991L127 560.981L130 561.982ZM351.5 31.0258L360.5 28.0232L365.5 44.037H355L351.5 31.0258ZM355 56.5477L370 51.5434L374 66.0559L360.5 70.0593L355 56.5477ZM370 87.0739L385 78.5666L390.5 92.5787L377 99.5847L367.5 85.5727L370 87.0739ZM342.5 92.5787L351.5 87.0739L360.5 119.101L357.5 121.103L342.5 92.5787ZM305 13.5107L335.5 9.50731V1.50043H299.5L305 13.5107ZM157.5 44.037L169 39.0327L172 56.5477L160.5 59.5503L157.5 44.037ZM114 46.5391L128 39.0327L134 50.4425L119.5 53.5451L114 46.5391ZM48.5 40.534L65.5 31.0258L68 50.4425L51.5 53.5451L48.5 40.534ZM212 125.607L217.5 134.114L229 129.11L225 121.103L212 125.607ZM94.5 74.5632L108 70.0593L113 81.5692L100 92.5787L94.5 74.5632ZM212 425.365L225 420.861L229 428.868V436.874H217.5L212 433.371V425.365ZM289.5 361.81L309 367.815V384.83L283.5 375.822L289.5 361.81ZM264.5 249.213L271 262.224L279.5 255.719L274.5 244.209L264.5 249.213Z" stroke="black" stroke-width="0.5"/>
    </g>
    <g id="ExtraBuildingsYello">
      <path d="M209.5 15.5125L201 19.0155L209.5 39.0327L238.5 27.0223L235.5 23.5193H229V19.0155L238.5 15.5125L235.5 9.5073L219 15.5125H209.5Z" fill="#FFDAAE"/>
      <path d="M224 2.50128L207.5 9.5073L209.5 14.0112L227 7.50558L224 2.50128Z" fill="#FFDAAE"/>
      <path d="M88 97.0825L81.5 79.5675L69.5 87.5744L76 100.586L88 97.0825Z" fill="#FFDAAE"/>
      <path d="M52.5 92.0782L20 106.591L27.5 120.102L57 106.591L52.5 92.0782Z" fill="#FFDAAE"/>
      <path d="M20 220.188L12.5 212.682H9.50003H6.00003V236.202L27.5 224.192L24.5 216.685L20 220.188Z" fill="#FFDAAE"/>
      <path d="M342.5 113.597L320 120.102L317.5 121.103L327.5 140.12L348.5 130.111L342.5 113.597Z" fill="#FFDAAE"/>
      <path d="M317.5 68.0576L304.5 71.0602L315 91.0774L324.5 85.0722L317.5 68.0576Z" fill="#FFDAAE"/>
      <path d="M367.5 9.5073L357.5 15.5125L367.5 39.0327L380.5 33.5279L367.5 9.5073Z" fill="#FFDAAE"/>
      <path d="M352 15.5125L339 19.0155L342.5 30.5254L352 23.5193V15.5125Z" fill="#FFDAAE"/>
      <path d="M45 377.323L33 382.828L42.5 398.842L50 394.338L45 377.323Z" fill="#FFDAAE"/>
      <path d="M12.5 382.828L9.50003 369.316L6.00003 388.333L12.5 382.828Z" fill="#FFDAAE"/>
      <path d="M20 494.424L6.00003 501.43V511.939L20 501.43V494.424Z" fill="#FFDAAE"/>
      <path d="M27.5 518.945L6.00003 532.457L12.5 544.467L33 532.457L27.5 518.945Z" fill="#FFDAAE"/>
      <path d="M160.5 532.457L146.5 534.959H143.5L146.5 548.971L164.5 541.965L160.5 532.457Z" fill="#FFDAAE"/>
      <path d="M105.5 560.481H99L96 573.492H105.5V560.481Z" fill="#FFDAAE"/>
      <path d="M270 560.481L249.5 581.999H286L299 568.488L270 560.481Z" fill="#FFDAAE"/>
      <path d="M387.5 504.432L368.5 508.936L372.5 532.457L393.5 529.454L387.5 504.432Z" fill="#FFDAAE"/>
      <path d="M339 54.0456L324.5 61.0516L320 68.0576L335 87.5744L352 79.5675L339 54.0456Z" fill="#FFDAAE"/>
      <path d="M36 269.731L20 277.738L27.5 291.249L39.5 284.744L36 269.731Z" fill="#FFDAAE"/>
      <path d="M20 323.777L12.5 304.261L6.00003 307.263V332.785L20 323.777Z" fill="#FFDAAE"/>
      <path d="M12.5 19.0155L9.50003 23.5193L3.00003 30.5254L6.00003 39.0327L20 33.5279L12.5 19.0155Z" fill="#FFDAAE"/>
      <path d="M17 68.0576L9.50003 54.0456L3.00003 61.0516L6.00003 76.0645L17 68.0576Z" fill="#FFDAAE"/>
      <path d="M167 7.50558L149 15.5125L137.5 2.50128H167V7.50558Z" fill="#FFDAAE"/>
      <path d="M298 19.0155L282.5 27.0223L298 23.5193V19.0155Z" fill="#FFDAAE"/>
      <path d="M392.5 244.709L371 250.715L380.5 284.744H392.5V244.709Z" fill="#FFDAAE"/>
      <path d="M70 85.0722L81.5 79.5675M81.5 79.5675L88 97.0825L76 100.586L69.5 87.5744L81.5 79.5675ZM201 19.0155L209.5 15.5125H219L235.5 9.5073L238.5 15.5125L229 19.0155V23.5193H235.5L238.5 27.0223L209.5 39.0327L201 19.0155ZM207.5 9.5073L224 2.50128L227 7.50558L209.5 14.0112L207.5 9.5073ZM20 106.591L52.5 92.0782L57 106.591L27.5 120.102L20 106.591ZM12.5 212.682L20 220.188L24.5 216.685L27.5 224.192L6.00003 236.202V212.682H9.50003H12.5ZM320 120.102L342.5 113.597L348.5 130.111L327.5 140.12L317.5 121.103L320 120.102ZM304.5 71.0602L317.5 68.0576L324.5 85.0722L315 91.0774L304.5 71.0602ZM357.5 15.5125L367.5 9.5073L380.5 33.5279L367.5 39.0327L357.5 15.5125ZM339 19.0155L352 15.5125V23.5193L342.5 30.5254L339 19.0155ZM33 382.828L45 377.323L50 394.338L42.5 398.842L33 382.828ZM9.50003 369.316L12.5 382.828L6.00003 388.333L9.50003 369.316ZM6.00003 501.43L20 494.424V501.43L6.00003 511.939V501.43ZM6.00003 532.457L27.5 518.945L33 532.457L12.5 544.467L6.00003 532.457ZM146.5 534.959L160.5 532.457L164.5 541.965L146.5 548.971L143.5 534.959H146.5ZM99 560.481H105.5V573.492H96L99 560.481ZM249.5 581.999L270 560.481L299 568.488L286 581.999H249.5ZM368.5 508.936L387.5 504.432L393.5 529.454L372.5 532.457L368.5 508.936ZM324.5 61.0516L339 54.0456L352 79.5675L335 87.5744L320 68.0576L324.5 61.0516ZM20 277.738L36 269.731L39.5 284.744L27.5 291.249L20 277.738ZM12.5 304.261L20 323.777L6.00003 332.785V307.263L12.5 304.261ZM9.50003 23.5193L12.5 19.0155L20 33.5279L6.00003 39.0327L3.00003 30.5254L9.50003 23.5193ZM9.50003 54.0456L17 68.0576L6.00003 76.0645L3.00003 61.0516L9.50003 54.0456ZM149 15.5125L167 7.50558V2.50128H137.5L149 15.5125ZM282.5 27.0223L298 19.0155V23.5193L282.5 27.0223ZM371 250.715L392.5 244.709V284.744H380.5L371 250.715Z" stroke="#FFB500" stroke-width="0.4"/>
    </g>
  </g>
</svg>
