<svg width="43" height="49" viewBox="0 0 43 49" fill="none" xmlns="http://www.w3.org/2000/svg">
<path d="M13.0001 1.55374L23.0001 15.0653L38.0001 9.56062L42.0001 27.5761V32.5804H26.1897L25.0001 44.0903V48.0937L7.00006 44.0903V41.0877L11.9092 27.5761L0.500061 20.0696V15.0653L13.0001 1.55374Z" fill="#F0C189"/>
<path d="M42.0001 27.5761L38.0001 9.56062L23.0001 15.0653L13.0001 1.55374L0.500061 15.0653M42.0001 27.5761L26.5001 29.5778L26.1897 32.5804M42.0001 27.5761V32.5804H26.1897M25.0001 44.0903L7.00006 41.0877M25.0001 44.0903L26.1897 32.5804M25.0001 44.0903V48.0937L7.00006 44.0903V41.0877M7.00006 41.0877L11.9092 27.5761M0.500061 15.0653L13.0001 24.5735L11.9092 27.5761M0.500061 15.0653V20.0696L11.9092 27.5761" stroke="black"/>
</svg>
