<svg width="45" height="50" viewBox="0 0 45 50" fill="none" xmlns="http://www.w3.org/2000/svg">
<path d="M23.768 1.18475L27.6582 17.5425L43.6128 18.3804L40.2174 36.5197L38.2525 41.1214L23.7141 34.9029L18.1009 45.0189L16.529 48.7003L1.54905 37.9392L2.72799 35.1782L12.5474 24.6845L5.0035 13.2945L6.9684 8.69284L23.768 1.18475Z" fill="#F0C189"/>
<path d="M40.2174 36.5197L43.6128 18.3804L27.6582 17.5425L23.768 1.18475L6.9684 8.69284M40.2174 36.5197L25.1784 32.264L23.7141 34.9029M40.2174 36.5197L38.2525 41.1214L23.7141 34.9029M18.1009 45.0189L2.72799 35.1782M18.1009 45.0189L23.7141 34.9029M18.1009 45.0189L16.529 48.7003L1.54905 37.9392L2.72799 35.1782M2.72799 35.1782L12.5474 24.6845M6.9684 8.69284L14.7294 22.3525L12.5474 24.6845M6.9684 8.69284L5.0035 13.2945L12.5474 24.6845" stroke="black"/>
</svg>
