<svg width="46" height="49" viewBox="0 0 46 49" fill="none" xmlns="http://www.w3.org/2000/svg">
<path d="M27.005 0.988911L29.4315 17.6273L45.2491 19.8771L40.2608 37.6439L37.8962 42.0532L23.9657 34.5697L17.4788 44.1479L15.5871 47.6754L1.61896 35.6279L3.03774 32.9823L13.7477 23.4009L7.24205 11.3866L9.60669 6.97733L27.005 0.988911Z" fill="#F0C189"/>
<path d="M40.2608 37.6439L45.2491 19.8771L29.4315 17.6273L27.005 0.988911L9.60669 6.97733M40.2608 37.6439L25.6579 32.071L23.9657 34.5697M40.2608 37.6439L37.8962 42.0532L23.9657 34.5697M17.4788 44.1479L3.03774 32.9823M17.4788 44.1479L23.9657 34.5697M17.4788 44.1479L15.5871 47.6754L1.61896 35.6279L3.03774 32.9823M3.03774 32.9823L13.7477 23.4009M9.60669 6.97733L16.1276 21.2717L13.7477 23.4009M9.60669 6.97733L7.24205 11.3866L13.7477 23.4009" stroke="black"/>
</svg>
