<svg width="48" height="48" viewBox="0 0 48 48" fill="none" xmlns="http://www.w3.org/2000/svg">
<path d="M30.9955 1.29083L31.3976 18.1008L46.8283 22.245L39.7337 39.2793L36.8546 43.3707L23.9285 34.2589L16.3339 42.9834L14.0306 46.2565L1.61757 32.6097L3.34504 30.1549L15.1322 21.9373L10.1231 9.22498L13.0022 5.1336L30.9955 1.29083Z" fill="#F0C189"/>
<path d="M39.7337 39.2793L46.8283 22.245L31.3976 18.1008L30.9955 1.29083L13.0022 5.1336M39.7337 39.2793L25.9097 31.9829L23.9285 34.2589M39.7337 39.2793L36.8546 43.3707L23.9285 34.2589M16.3339 42.9834L3.34504 30.1549M16.3339 42.9834L23.9285 34.2589M16.3339 42.9834L14.0306 46.2565L1.61757 32.6097L3.34504 30.1549M3.34504 30.1549L15.1322 21.9373M13.0022 5.1336L17.7516 20.1112L15.1322 21.9373M13.0022 5.1336L10.1231 9.22498L15.1322 21.9373" stroke="black"/>
</svg>
