<svg width="47" height="48" viewBox="0 0 47 48" fill="none" xmlns="http://www.w3.org/2000/svg">
<path d="M4.73073 7.00013L20.2393 13.4659L30.2952 1.04036L42.9611 14.4525L45.5255 18.7484L31.9531 26.8644L36.83 37.3558L38.8816 40.7926L21.3779 46.5958L19.8392 44.0182L17.1294 29.8991L3.48855 29.3118L0.924092 25.0159L4.73073 7.00013Z" fill="#F0C189"/>
<path d="M42.9611 14.4525L30.2952 1.04036L20.2393 13.4659L4.73073 7.00013L0.924092 25.0159M42.9611 14.4525L30.6808 24.1275L31.9531 26.8644M42.9611 14.4525L45.5255 18.7484L31.9531 26.8644M36.83 37.3558L19.8392 44.0182M36.83 37.3558L31.9531 26.8644M36.83 37.3558L38.8816 40.7926L21.3779 46.5958L19.8392 44.0182M19.8392 44.0182L17.1294 29.8991M0.924092 25.0159L16.5272 26.7615L17.1294 29.8991M0.924092 25.0159L3.48855 29.3118L17.1294 29.8991" stroke="black"/>
</svg>
