<svg width="42" height="50" viewBox="0 0 42 50" fill="none" xmlns="http://www.w3.org/2000/svg">
<path d="M19.4364 0.782968L25.0961 16.6148L41.0463 15.6959L39.6595 34.0986L38.2109 38.8883L23.0787 34.3036L18.6081 44.9748L17.4492 48.8065L1.38018 39.7551L2.24938 36.8813L10.8593 25.3728L2.11255 14.8799L3.56121 10.0903L19.4364 0.782968Z" fill="#F0C189"/>
<path d="M39.6595 34.0986L41.0463 15.6959L25.0961 16.6148L19.4364 0.782968L3.56121 10.0903M39.6595 34.0986L24.2449 31.5198L23.0787 34.3036M39.6595 34.0986L38.2109 38.8883L23.0787 34.3036M18.6081 44.9748L2.24938 36.8813M18.6081 44.9748L23.0787 34.3036M18.6081 44.9748L17.4492 48.8065L1.38018 39.7551L2.24938 36.8813M2.24938 36.8813L10.8593 25.3728M3.56121 10.0903L12.7726 22.8154L10.8593 25.3728M3.56121 10.0903L2.11255 14.8799L10.8593 25.3728" stroke="black"/>
</svg>
