<svg width="50" height="46" viewBox="0 0 50 46" fill="none" xmlns="http://www.w3.org/2000/svg">
<path d="M1.57411 20.1307L18.1168 17.1975L19.8828 1.30517L37.7777 5.75533L42.2531 7.98687L35.2029 22.1504L44.9657 28.3487L48.546 30.1339L36.9391 44.4738L34.2539 43.1349L24.3595 32.712L12.5589 39.5854L8.08352 37.3539L1.57411 20.1307Z" fill="#F0C189"/>
<path d="M37.7777 5.75533L19.8828 1.30517L18.1168 17.1975L1.57411 20.1307L8.08352 37.3539M37.7777 5.75533L32.6561 20.5335L35.2029 22.1504M37.7777 5.75533L42.2531 7.98687L35.2029 22.1504M44.9657 28.3487L34.2539 43.1349M44.9657 28.3487L35.2029 22.1504M44.9657 28.3487L48.546 30.1339L36.9391 44.4738L34.2539 43.1349M34.2539 43.1349L24.3595 32.712M8.08352 37.3539L22.1607 30.3958L24.3595 32.712M8.08352 37.3539L12.5589 39.5854L24.3595 32.712" stroke="black"/>
</svg>
