<svg width="48" height="48" viewBox="0 0 48 48" fill="none" xmlns="http://www.w3.org/2000/svg">
<path d="M31.4555 1.55582L31.6046 18.3699L46.9711 22.7463L39.6211 39.6717L36.6807 43.7192L23.8932 34.4136L16.1681 43.0227L13.8159 46.2607L1.60958 32.4283L3.37379 29.9998L15.2833 21.9609L10.466 9.17445L13.4064 5.12692L31.4555 1.55582Z" fill="#F0C189"/>
<path d="M39.6211 39.6717L46.9711 22.7463L31.6046 18.3699L31.4555 1.55582L13.4064 5.12692M39.6211 39.6717L25.9084 32.1677L23.8932 34.4136M39.6211 39.6717L36.6807 43.7192L23.8932 34.4136M16.1681 43.0227L3.37379 29.9998M16.1681 43.0227L23.8932 34.4136M16.1681 43.0227L13.8159 46.2607L1.60958 32.4283L3.37379 29.9998M3.37379 29.9998L15.2833 21.9609M13.4064 5.12692L17.9298 20.1744L15.2833 21.9609M13.4064 5.12692L10.466 9.17445L15.2833 21.9609" stroke="black"/>
</svg>
