<svg width="45" height="48" viewBox="0 0 45 48" fill="none" xmlns="http://www.w3.org/2000/svg">
<path d="M1.17799 11.9285L17.6854 15.0544L24.965 0.820414L40.1221 11.3301L43.5166 15.0044L31.9081 25.7472L38.8419 35.0065L41.5575 37.946L25.6257 47.2372L23.589 45.0326L18.0283 31.7762L4.55963 34.017L1.16515 30.3427L1.17799 11.9285Z" fill="#F0C189"/>
<path d="M40.1221 11.3301L24.965 0.820412L17.6854 15.0544L1.17799 11.9285L1.16516 30.3427M40.1221 11.3301L30.0992 23.3317L31.9081 25.7472M40.1221 11.3301L43.5166 15.0044L31.9081 25.7472M38.8419 35.0065L23.589 45.0326M38.8419 35.0065L31.9081 25.7472M38.8419 35.0065L41.5575 37.946L25.6257 47.2372L23.589 45.0326M23.589 45.0326L18.0283 31.7762M1.16516 30.3427L16.7926 28.8304L18.0283 31.7762M1.16516 30.3427L4.55963 34.017L18.0283 31.7762" stroke="black"/>
</svg>
