<svg width="45" height="50" viewBox="0 0 45 50" fill="none" xmlns="http://www.w3.org/2000/svg">
<path d="M24.8094 1.49775L28.2434 17.9575L44.1686 19.2393L40.2702 37.2771L38.1782 41.8223L23.8183 35.2014L17.9261 45.1572L16.2524 48.7933L1.57741 37.6193L2.83264 34.8922L12.9399 24.6759L5.71558 13.0803L7.80764 8.53515L24.8094 1.49775Z" fill="#F0C189"/>
<path d="M40.2702 37.2771L44.1686 19.2393L28.2434 17.9575L24.8094 1.49775L7.80763 8.53515M40.2702 37.2771L25.3554 32.6042L23.8183 35.2014M40.2702 37.2771L38.1782 41.8223L23.8183 35.2014M17.9261 45.1572L2.83264 34.8922M17.9261 45.1572L23.8183 35.2014M17.9261 45.1572L16.2524 48.7933L1.57741 37.6193L2.83264 34.8922M2.83264 34.8922L12.9399 24.6759M7.80763 8.53515L15.186 22.4056L12.9399 24.6759M7.80763 8.53515L5.71558 13.0803L12.9399 24.6759" stroke="black"/>
</svg>
