<svg width="49" height="46" viewBox="0 0 49 46" fill="none" xmlns="http://www.w3.org/2000/svg">
<path d="M0.966933 19.7634L17.6031 17.4185L19.9304 1.59877L37.6566 6.68058L42.0502 9.06938L34.5031 22.9741L44.0404 29.5146L47.5553 31.4256L35.4482 45.345L32.812 43.9118L23.2927 33.1446L11.2563 39.5953L6.86269 37.2065L0.966933 19.7634Z" fill="#F0C189"/>
<path d="M37.6566 6.68058L19.9304 1.59877L17.6031 17.4185L0.966933 19.7634L6.86269 37.2065M37.6566 6.68058L32.0151 21.2679L34.5031 22.9741M37.6566 6.68058L42.0502 9.06938L34.5031 22.9741M44.0404 29.5146L32.812 43.9118M44.0404 29.5146L34.5031 22.9741M44.0404 29.5146L47.5553 31.4256L35.4482 45.345L32.812 43.9118M32.812 43.9118L23.2927 33.1446M6.86269 37.2065L21.1773 30.7519L23.2927 33.1446M6.86269 37.2065L11.2563 39.5953L23.2927 33.1446" stroke="black"/>
</svg>
