<svg width="44" height="49" viewBox="0 0 44 49" fill="none" xmlns="http://www.w3.org/2000/svg">
<path d="M0.745989 13.7776L17.388 16.0806L23.9535 1.50292L39.6126 11.2476L43.1849 14.749L32.1228 26.0546L39.5067 34.9584L42.3646 37.7595L26.9126 47.8298L24.7692 45.729L18.5587 32.7649L5.21761 35.6712L1.6453 32.1698L0.745989 13.7776Z" fill="#F0C189"/>
<path d="M39.6126 11.2476L23.9535 1.50292L17.388 16.0806L0.745989 13.7776L1.6453 32.1698M39.6126 11.2476L30.1965 23.7318L32.1228 26.0546M39.6126 11.2476L43.1849 14.749L32.1228 26.0546M39.5067 34.9584L24.7692 45.729M39.5067 34.9584L32.1228 26.0546M39.5067 34.9584L42.3646 37.7595L26.9126 47.8298L24.7692 45.729M24.7692 45.729L18.5587 32.7649M1.6453 32.1698L17.1786 29.884L18.5587 32.7649M1.6453 32.1698L5.21761 35.6712L18.5587 32.7649" stroke="black"/>
</svg>
