<svg width="51" height="42" viewBox="0 0 51 42" fill="none" xmlns="http://www.w3.org/2000/svg">
<path d="M1.39714 24.789L16.5643 17.5572L14.0428 1.76729L32.4758 1.29293L37.383 2.25258L34.3511 17.7828L45.4096 21.1586L49.3353 21.9264L41.9578 38.8397L39.0134 38.264L26.7054 30.8508L17.1567 40.6182L12.2495 39.6586L1.39714 24.789Z" fill="#F0C189"/>
<path d="M32.4758 1.29292L14.0428 1.76729L16.5643 17.5572L1.39714 24.789L12.2495 39.6586M32.4758 1.29292L31.4663 16.9022L34.3511 17.7828M32.4758 1.29292L37.383 2.25258L34.3511 17.7828M45.4096 21.1586L39.0134 38.264M45.4096 21.1586L34.3511 17.7828M45.4096 21.1586L49.3353 21.9264L41.9578 38.8397L39.0134 38.264M39.0134 38.264L26.7054 30.8508M12.2495 39.6586L23.9703 29.2034L26.7054 30.8508M12.2495 39.6586L17.1567 40.6182L26.7054 30.8508" stroke="black"/>
</svg>
