<svg width="46" height="49" viewBox="0 0 46 49" fill="none" xmlns="http://www.w3.org/2000/svg">
<path d="M2.96215 9.86107L19.0861 14.584L27.7185 1.12874L41.7788 13.0683L44.7989 17.0566L32.1986 26.6146L38.1967 36.5068L40.6128 39.6974L23.8513 47.3885L22.0392 44.9956L17.7973 31.2595L4.17448 32.1744L1.15437 28.1862L2.96215 9.86107Z" fill="#F0C189"/>
<path d="M41.7788 13.0683L27.7185 1.12874L19.0861 14.584L2.96215 9.86107L1.15437 28.1862M41.7788 13.0683L30.6338 24.034L32.1986 26.6146M41.7788 13.0683L44.7989 17.0566L32.1986 26.6146M38.1967 36.5068L22.0392 44.9956M38.1967 36.5068L32.1986 26.6146M38.1967 36.5068L40.6128 39.6974L23.8513 47.3885L22.0392 44.9956M22.0392 44.9956L17.7973 31.2595M1.15437 28.1862L16.8547 28.2071L17.7973 31.2595M1.15437 28.1862L4.17448 32.1744L17.7973 31.2595" stroke="black"/>
</svg>
