<svg width="42" height="50" viewBox="0 0 42 50" fill="none" xmlns="http://www.w3.org/2000/svg">
<path d="M19.5035 1.02357L25.1372 16.8647L41.0888 15.972L39.6719 34.3724L38.2154 39.1597L23.0907 34.5501L18.6027 45.214L17.4375 49.0438L1.38333 39.966L2.25724 37.0937L10.886 25.5993L2.15649 15.092L3.61301 10.3048L19.5035 1.02357Z" fill="#F0C189"/>
<path d="M39.6719 34.3724L41.0888 15.972L25.1372 16.8647L19.5035 1.02357L3.61301 10.3048M39.6719 34.3724L24.2615 31.7682L23.0907 34.5501M39.6719 34.3724L38.2154 39.1597L23.0907 34.5501M18.6027 45.214L2.25724 37.0937M18.6027 45.214L23.0907 34.5501M18.6027 45.214L17.4375 49.0438L1.38333 39.966L2.25724 37.0937M2.25724 37.0937L10.886 25.5993M3.61301 10.3048L12.8035 23.045L10.886 25.5993M3.61301 10.3048L2.15649 15.092L10.886 25.5993" stroke="black"/>
</svg>
