<svg width="49" height="46" viewBox="0 0 49 46" fill="none" xmlns="http://www.w3.org/2000/svg">
<path d="M1.33044 18.4017L18.0355 16.6141L20.8895 0.881049L38.4362 6.55255L42.7476 9.08688L34.7408 22.7316L44.0545 29.5872L47.5037 31.6147L34.9388 45.1216L32.3519 43.601L23.1973 32.5217L10.9523 38.5665L6.64085 36.0321L1.33044 18.4017Z" fill="#F0C189"/>
<path d="M38.4362 6.55255L20.8895 0.881049L18.0355 16.6141L1.33044 18.4017L6.64085 36.0321M38.4362 6.55255L32.3111 20.9431L34.7408 22.7316M38.4362 6.55255L42.7476 9.08688L34.7408 22.7316M44.0545 29.5872L32.3519 43.601M44.0545 29.5872L34.7408 22.7316M44.0545 29.5872L47.5037 31.6147L34.9388 45.1216L32.3519 43.601M32.3519 43.601L23.1973 32.5217M6.64085 36.0321L21.1629 30.0596L23.1973 32.5217M6.64085 36.0321L10.9523 38.5665L23.1973 32.5217" stroke="black"/>
</svg>
