<svg width="45" height="47" viewBox="0 0 45 47" fill="none" xmlns="http://www.w3.org/2000/svg">
<path d="M12.4572 0.822227L23.5403 13.459L38.0336 6.73038L43.5099 24.3526L43.9238 29.3398L28.1677 30.6496L27.9341 42.2186L28.2652 46.2083L9.99584 43.7099L9.74751 40.7176L13.5222 26.8457L1.53147 20.3102L1.11757 15.3231L12.4572 0.822227Z" fill="#F0C189"/>
<path d="M43.5099 24.3526L38.0336 6.73038L23.5403 13.459L12.4572 0.822227L1.11757 15.3231M43.5099 24.3526L28.2286 27.6316L28.1677 30.6496M43.5099 24.3526L43.9238 29.3398L28.1677 30.6496M27.9341 42.2186L9.74751 40.7176M27.9341 42.2186L28.1677 30.6496M27.9341 42.2186L28.2652 46.2083L9.99584 43.7099L9.74751 40.7176M9.74751 40.7176L13.5222 26.8457M1.11757 15.3231L14.3611 23.763L13.5222 26.8457M1.11757 15.3231L1.53147 20.3102L13.5222 26.8457" stroke="black"/>
</svg>
