<svg width="46" height="49" viewBox="0 0 46 49" fill="none" xmlns="http://www.w3.org/2000/svg">
<path d="M27.8497 1.5866L29.3751 18.3319L45.0483 21.4331L39.1089 38.9045L36.5098 43.1796L23.0033 34.9541L16.0092 44.1679L13.93 47.588L0.632158 34.8033L2.19159 32.2382L13.4028 23.2495L7.55474 10.9012L10.1538 6.62614L27.8497 1.5866Z" fill="#F0C189"/>
<path d="M39.1089 38.9045L45.0483 21.4331L29.3751 18.3319L27.8497 1.5866L10.1538 6.62614M39.1089 38.9045L24.8279 32.5505L23.0033 34.9541M39.1089 38.9045L36.5098 43.1796L23.0033 34.9541M16.0092 44.1679L2.19159 32.2382M16.0092 44.1679L23.0033 34.9541M16.0092 44.1679L13.93 47.588L0.632159 34.8033L2.19159 32.2382M2.19159 32.2382L13.4028 23.2495M10.1538 6.62614L15.8941 21.252L13.4028 23.2495M10.1538 6.62614L7.55474 10.9012L13.4028 23.2495" stroke="black"/>
</svg>
