<svg width="47" height="47" viewBox="0 0 47 47" fill="none" xmlns="http://www.w3.org/2000/svg">
<path d="M6.41088 4.82509L21.1958 12.8104L32.4426 1.45348L43.7051 16.0659L45.8276 20.597L31.5123 27.314L35.3168 38.2409L37.0147 41.8657L19.019 45.8882L17.7455 43.1696L16.4598 28.8501L2.94597 26.9007L0.823535 22.3696L6.41088 4.82509Z" fill="#F0C189"/>
<path d="M43.7051 16.0659L32.4426 1.45348L21.1958 12.8104L6.41088 4.82509L0.823535 22.3696M43.7051 16.0659L30.5199 24.4635L31.5123 27.314M43.7051 16.0659L45.8276 20.597L31.5123 27.314M35.3168 38.2409L17.7455 43.1696M35.3168 38.2409L31.5123 27.314M35.3168 38.2409L37.0147 41.8657L19.019 45.8882L17.7455 43.1696M17.7455 43.1696L16.4598 28.8501M0.823535 22.3696L16.1741 25.668L16.4598 28.8501M0.823535 22.3696L2.94597 26.9007L16.4598 28.8501" stroke="black"/>
</svg>
