<svg width="43" height="49" viewBox="0 0 43 49" fill="none" xmlns="http://www.w3.org/2000/svg">
<path d="M13.5001 1.16251L23.5001 14.6741L38.5001 9.16938L42.5001 27.1849V32.1892H26.6897L25.5001 43.6991V47.7025L7.50006 43.6991V40.6965L12.4092 27.1849L1.00006 19.6784V14.6741L13.5001 1.16251Z" fill="#F0C189"/>
<path d="M42.5001 27.1849L38.5001 9.16938L23.5001 14.6741L13.5001 1.16251L1.00006 14.6741M42.5001 27.1849L27.0001 29.1866L26.6897 32.1892M42.5001 27.1849V32.1892H26.6897M25.5001 43.6991L7.50006 40.6965M25.5001 43.6991L26.6897 32.1892M25.5001 43.6991V47.7025L7.50006 43.6991V40.6965M7.50006 40.6965L12.4092 27.1849M1.00006 14.6741L13.5001 24.1823L12.4092 27.1849M1.00006 14.6741V19.6784L12.4092 27.1849" stroke="black"/>
</svg>
