<svg width="46" height="49" viewBox="0 0 46 49" fill="none" xmlns="http://www.w3.org/2000/svg">
<path d="M1.16409 15.1305L17.9182 16.3762L23.5502 1.41242L39.7932 10.1471L43.5795 13.4155L33.2534 25.3983L41.1848 33.8173L44.2138 36.432L29.4286 47.4595L27.1568 45.4985L20.1402 32.9531L7.00923 36.6975L3.22297 33.4291L1.16409 15.1305Z" fill="#F0C189"/>
<path d="M39.7932 10.1471L23.5502 1.41242L17.9182 16.3762L1.16409 15.1305L3.22297 33.4291M39.7932 10.1471L31.1843 23.202L33.2534 25.3983M39.7932 10.1471L43.5795 13.4155L33.2534 25.3983M41.1848 33.8173L27.1568 45.4985M41.1848 33.8173L33.2534 25.3983M41.1848 33.8173L44.2138 36.432L29.4286 47.4595L27.1568 45.4985M27.1568 45.4985L20.1402 32.9531M3.22297 33.4291L18.5809 30.1653L20.1402 32.9531M3.22297 33.4291L7.00923 36.6975L20.1402 32.9531" stroke="black"/>
</svg>
