<svg width="46" height="49" viewBox="0 0 46 49" fill="none" xmlns="http://www.w3.org/2000/svg">
<path d="M27.0479 1.44098L28.9716 18.1451L44.7142 20.8716L39.1925 38.4797L36.696 42.8156L22.9975 34.9146L16.2247 44.2926L14.2275 47.7613L0.62903 35.2974L2.12694 32.6959L13.1209 23.4423L6.9805 11.237L9.47701 6.90117L27.0479 1.44098Z" fill="#F0C189"/>
<path d="M39.1925 38.4797L44.7142 20.8716L28.9716 18.1451L27.0479 1.44098L9.47701 6.90117M39.1925 38.4797L24.7643 32.4682L22.9975 34.9146M39.1925 38.4797L36.696 42.8156L22.9975 34.9146M16.2247 44.2926L2.12694 32.6959M16.2247 44.2926L22.9975 34.9146M16.2247 44.2926L14.2275 47.7613L0.629031 35.2974L2.12694 32.6959M2.12694 32.6959L13.1209 23.4423M9.47701 6.90117L15.564 21.386L13.1209 23.4423M9.47701 6.90117L6.9805 11.237L13.1209 23.4423" stroke="black"/>
</svg>
