<svg width="47" height="47" viewBox="0 0 47 47" fill="none" xmlns="http://www.w3.org/2000/svg">
<path d="M6.1854 5.18325L21.1602 12.8058L32.1274 1.17809L43.7421 15.5116L45.9742 19.9896L31.8267 27.0536L35.8959 37.8845L37.6815 41.4669L19.789 45.9269L18.4498 43.2401L16.816 28.9562L3.25871 27.3367L1.02664 22.8588L6.1854 5.18325Z" fill="#F0C189"/>
<path d="M43.7421 15.5116L32.1274 1.17809L21.1602 12.8058L6.1854 5.18325L1.02664 22.8588M43.7421 15.5116L30.7651 24.2282L31.8267 27.0536M43.7421 15.5116L45.9742 19.9896L31.8267 27.0536M35.8959 37.8845L18.4498 43.2401M35.8959 37.8845L31.8267 27.0536M35.8959 37.8845L37.6815 41.4669L19.789 45.9269L18.4498 43.2401M18.4498 43.2401L16.816 28.9562M1.02664 22.8588L16.4529 25.782L16.816 28.9562M1.02664 22.8588L3.25871 27.3367L16.816 28.9562" stroke="black"/>
</svg>
